<svg width="14" height="14" viewBox="0 0 14 14" fill="none" xmlns="http://www.w3.org/2000/svg">
<g clip-path="url(#clip0_78_436)">
<path fill-rule="evenodd" clip-rule="evenodd" d="M7.55998 0.330008C7.43719 0.29731 7.30645 0.314634 7.19641 0.378181C7.08638 0.441728 7.00603 0.546313 6.97298 0.669008L4.63998 9.37701C4.60732 9.49993 4.62478 9.6308 4.68853 9.74086C4.75228 9.85092 4.8571 9.93118 4.97998 9.96401L11.063 11.594C11.1859 11.6267 11.3168 11.6092 11.4268 11.5455C11.5369 11.4817 11.6171 11.3769 11.65 11.254L13.985 2.54701C14.0013 2.48607 14.0055 2.42252 13.9972 2.35998C13.9889 2.29744 13.9684 2.23714 13.9369 2.18253C13.9053 2.12792 13.8633 2.08007 13.8132 2.04172C13.7631 2.00337 13.7059 1.97526 13.645 1.95901L7.55998 0.330008ZM3.43298 9.05301L5.02898 3.09801L0.355981 4.34901C0.295028 4.36526 0.237876 4.39337 0.187792 4.43172C0.137709 4.47007 0.0956774 4.51792 0.0641002 4.57253C0.0325231 4.62714 0.0120199 4.68744 0.0037632 4.74998C-0.00449353 4.81252 -0.000341903 4.87607 0.0159807 4.93701L2.35098 13.644C2.38381 13.7669 2.46407 13.8717 2.57413 13.9355C2.68419 13.9992 2.81506 14.0167 2.93798 13.984L9.02198 12.354L9.04498 12.347L4.65498 11.171C4.21202 11.0522 3.83438 10.7623 3.60504 10.3652C3.37571 9.96802 3.31346 9.49605 3.43198 9.05301" fill="#5B578E"/>
</g>
<defs>
<clipPath id="clip0_78_436">
<rect width="14" height="14" fill="white"/>
</clipPath>
</defs>
</svg>
