<svg width="44" height="44" viewBox="0 0 44 44" fill="none" xmlns="http://www.w3.org/2000/svg">
<path d="M10.6517 3.66666C8.85499 3.83166 7.33333 5.49999 7.33333 7.33332V36.6667C7.33333 38.5917 9.07499 40.3333 11 40.3333H33C34.925 40.3333 36.6666 38.5917 36.6666 36.6667V7.33332C36.6666 6.36086 36.2803 5.42823 35.5927 4.7406C34.9051 4.05296 33.9724 3.66666 33 3.66666H22V16.5L17.4167 13.75L12.8333 16.5V3.66666H10.6517ZM22 23.8333H23.8333C24.3196 23.8333 24.7859 24.0265 25.1297 24.3703C25.4735 24.7141 25.6667 25.1804 25.6667 25.6667V33H23.8333V29.3333H22V33H20.1667V25.6667C20.1667 25.1804 20.3598 24.7141 20.7036 24.3703C21.0474 24.0265 21.5138 23.8333 22 23.8333ZM22 25.6667V27.5H23.8333V25.6667H22ZM27.5 27.5H33V29.3333L29.3333 34.8333H33V36.6667H27.5V34.8333L31.1667 29.3333H27.5V27.5Z" fill="#B25AB0"/>
<path d="M22 16.5V3.66666H12.8333V16.5L17.4167 13.75L22 16.5Z" fill="#D6C8A3"/>
<path fill-rule="evenodd" clip-rule="evenodd" d="M22 23.8333H23.8333C24.3196 23.8333 24.7859 24.0265 25.1297 24.3703C25.4735 24.7141 25.6667 25.1804 25.6667 25.6667V33H23.8333V29.3333H22V33H20.1667V25.6667C20.1667 25.1804 20.3598 24.7141 20.7036 24.3703C21.0474 24.0265 21.5138 23.8333 22 23.8333ZM22 27.5V25.6667H23.8333V27.5H22Z" fill="#D6C8A3"/>
<path d="M27.5 27.5H33V29.3333L29.3333 34.8333H33V36.6667H27.5V34.8333L31.1667 29.3333H27.5V27.5Z" fill="#D6C8A3"/>
</svg>
