<svg width="56" height="56" viewBox="0 0 56 56" fill="none" xmlns="http://www.w3.org/2000/svg">
<path d="M21.378 2.52645L20.8051 3.06837L21.858 4.12126C22.4309 4.70964 22.8954 5.22061 22.8954 5.28254C22.8954 5.40641 21.7032 5.87092 21.3625 5.87092C21.1303 5.87092 19.3961 4.53932 18.5909 3.74966C18.0026 3.17676 17.7858 3.19224 17.1664 3.84256C16.4387 4.60126 16.1755 5.46835 16.2994 6.6451C16.4542 8.23992 17.1664 9.37023 18.2658 9.80378C18.6064 9.94313 18.9471 10.0205 19.0245 9.9741C19.1019 9.92764 19.3187 9.61797 19.5045 9.27733C19.8141 8.7354 20.5728 8.19347 21.0219 8.19347C21.1148 8.19347 21.3006 8.41024 21.4399 8.67347C21.6412 9.07604 21.6567 9.27733 21.5174 9.83474C21.4244 10.1909 21.347 10.8102 21.347 11.1973C21.347 12.0334 21.5948 12.3276 22.7251 12.9005C23.5457 13.3186 24.1805 13.9844 24.1031 14.356C24.0257 14.7586 23.0193 15.1766 22.4309 15.0682C22.1522 15.0063 20.929 14.2476 19.6593 13.3341C16.8103 11.2902 15.7884 10.4541 15.3703 9.83474C14.8594 9.07604 14.3639 7.60509 14.271 6.52124C14.2091 5.94834 14.1007 5.49931 13.9768 5.45286C13.4813 5.26706 11.8865 6.42833 11.3136 7.4038C10.911 8.08509 10.8955 8.20896 10.8801 10.3302C10.8801 11.5379 10.8336 12.5754 10.7717 12.6218C10.5859 12.8231 9.88911 12.5134 9.3317 11.9715C8.80525 11.476 8.71235 11.445 8.38719 11.6154C7.67494 11.987 6.51367 13.396 6.32786 14.0773C6.23496 14.4334 6.20399 14.7895 6.28141 14.8515C6.34335 14.9134 7.52011 15.0527 8.88267 15.1456C10.2452 15.2385 11.7471 15.4089 12.2117 15.5482C14.2555 16.1056 14.6271 16.1521 15.4168 15.8579C16.3303 15.5173 17.8787 15.3934 18.4361 15.6102C18.6684 15.6876 18.978 15.9508 19.1174 16.1676C19.3651 16.5392 19.3651 16.5856 19.1019 16.8643C18.8077 17.1895 18.3742 17.3288 16.8413 17.6385C15.7265 17.8553 14.9058 18.5056 14.6736 19.3727C14.5807 19.7598 14.5497 20.4875 14.6116 21.2772C14.751 22.8255 14.5807 23.2901 13.9458 23.1352C13.0168 22.903 12.9239 22.6707 12.6762 20.0695C12.5059 18.1185 12.2891 17.6075 11.4839 17.2979C8.74332 16.214 5.01175 17.7624 3.74209 20.5185C3.13823 21.8656 3.06081 24.25 3.60274 25.0088C3.78854 25.2565 3.88144 25.272 4.42337 25.1017C5.19755 24.8694 6.21948 24.0023 6.73044 23.1352C7.02463 22.6088 7.27237 22.4075 7.79881 22.2372C8.17042 22.0978 8.51106 22.0359 8.55751 22.0978C8.77428 22.2991 8.61945 23.5378 8.32526 24.2346C7.89171 25.1946 7.89171 26.3094 8.32526 27.2849C8.63493 27.9971 8.7588 29.0964 8.55751 29.2822C8.41816 29.4216 7.36527 29.0964 7.04011 28.8177C6.88528 28.6629 6.59109 28.2139 6.3898 27.8113C5.94077 26.9597 5.69303 26.8049 5.19755 27.13C3.18468 28.4461 2.42598 31.0164 3.46338 33.0448C3.7266 33.5403 4.1137 34.0822 4.34595 34.2525L4.76401 34.5622L6.21948 33.6796C7.02463 33.1841 8.20139 32.6267 8.83622 32.4409C9.45557 32.2396 10.1833 31.9764 10.4465 31.8371C11.0194 31.5429 11.902 30.5829 11.902 30.2577C11.902 29.9635 12.7846 29.4061 13.2491 29.4061C13.5278 29.4061 13.6207 29.53 13.6981 29.979C13.76 30.3197 13.7291 30.7377 13.6207 31.0164C12.8929 32.8125 12.8465 33.7415 13.4504 35.0886C14.5652 37.6279 17.8477 38.3712 20.1393 36.606C21.347 35.6925 22.0438 33.7725 21.6567 32.379C21.4554 31.5738 21.0064 31.1403 20.2787 31.0164C18.018 30.6448 16.4232 29.2822 16.129 27.4707C16.0516 27.0216 16.3148 26.3558 16.7948 25.7055C16.9497 25.5042 17.6929 26.2939 18.08 27.0681C18.3277 27.5636 18.7922 28.1829 19.1174 28.4616C19.6438 28.9261 19.7677 28.9726 20.5109 28.9106C21.1457 28.8487 21.5483 28.6939 22.2915 28.1984C22.8644 27.8113 23.4373 27.5481 23.7005 27.5481C24.1186 27.5481 24.1341 27.5636 24.1341 28.3532C24.1341 28.8332 23.9947 29.4526 23.8089 29.8706C23.5302 30.4745 23.5147 30.7377 23.6076 32.1158C23.8244 35.4912 22.6941 37.7363 20.1238 39.037C19.1483 39.5324 19.0245 39.5479 17.3213 39.5479C15.6645 39.5479 15.4787 39.517 14.7045 39.0989C13.4039 38.4331 12.3046 37.2254 11.5613 35.677C10.8646 34.2215 10.6788 34.0822 9.54847 34.268C8.01558 34.5157 6.2969 35.9712 5.724 37.5505C5.22852 38.8666 5.27497 40.5234 5.84787 41.7156C6.08012 42.2266 6.5756 42.9388 6.93173 43.295C7.64398 44.0072 8.83622 44.6575 9.19234 44.5337C9.30073 44.4872 9.65685 44.0537 9.95104 43.5892C10.5085 42.7221 11.2826 42.2731 11.6852 42.5982C12.0878 42.9079 12.0723 43.7285 11.6542 44.6575C11.1278 45.8033 11.0039 47.1814 11.3446 48.3272C11.7936 49.9065 13.5278 51.3775 15.231 51.6407L15.8658 51.7336L16.0671 50.34C16.1755 49.5659 16.3768 48.4356 16.5161 47.8007C16.7793 46.6704 16.7793 46.6704 17.4606 46.4536C18.0335 46.2678 18.1574 46.2678 18.2658 46.4536C18.4671 46.7788 18.4361 47.7233 18.1729 48.451C18.049 48.8072 17.9406 49.5194 17.9406 50.0149C17.9406 53.5916 22.5238 55.3568 25.0167 52.7555C26.0076 51.7181 26.0541 51.4549 26.116 46.7788C26.147 44.3633 26.116 42.5672 26.0231 42.5672C25.9612 42.5672 25.3728 42.7376 24.7534 42.9543C24.1341 43.1711 23.4064 43.3414 23.1586 43.3414C22.6477 43.3414 21.6567 42.7995 21.6567 42.5208C21.6567 42.2731 22.5702 41.5608 23.0502 41.406C24.3354 41.0189 25.2334 40.3376 25.7289 39.3931C26.0696 38.7892 26.0696 38.6499 26.0696 31.8061V24.8384L25.636 23.9404C24.7999 22.2527 23.2825 21.7417 21.0683 22.423C19.9225 22.7636 19.2413 22.8256 18.9006 22.6088C18.7303 22.5004 18.7303 22.361 18.8851 21.8346C18.9935 21.4785 19.1483 21.1378 19.2413 21.0604C19.5974 20.7662 22.1212 20.2243 23.6541 20.1314C25.1405 20.023 25.2954 19.9766 25.6205 19.6049C26.1315 19.0011 26.1779 18.2888 26.116 11.058C26.0696 4.66319 26.0696 4.53932 25.7289 3.90449C25.1405 2.80515 23.8244 2.01548 22.5393 2C22.0902 2 21.827 2.12387 21.378 2.52645Z" fill="#FFCFAB"/>
<path d="M42.4048 3.09925C36.4281 4.41536 33.1456 5.88631 30.4204 8.48757C29.8321 9.04498 29.2592 9.75723 29.1198 10.0514C28.9185 10.5314 28.8875 13.0862 28.9185 30.877C28.934 42.0252 28.9804 51.1761 28.9959 51.207C29.0269 51.238 29.3985 50.7425 29.8011 50.1232C30.2191 49.5038 31.1791 48.358 31.9533 47.5993C35.1584 44.3942 38.3326 42.9542 42.9312 42.5671C45.1299 42.3968 45.3157 42.3504 45.4241 41.8859C45.579 41.2355 45.4241 2.5728 45.2693 2.54184C45.1919 2.52635 43.8912 2.77409 42.4048 3.09925Z" fill="#FFCFAB"/>
<path d="M47.5765 8.14693C47.3287 8.39467 47.3287 9.58691 47.3907 26.4796C47.4526 40.833 47.4216 44.6574 47.2668 45.0291C47.0345 45.5555 46.9881 45.571 44.1081 45.8187C38.6269 46.2832 36.0566 46.9955 33.3779 48.7916C32.3096 49.5038 30.1573 51.269 30.2502 51.3619C30.2657 51.3928 31.0709 51.0522 32.0309 50.6187C34.0282 49.7051 36.8927 48.838 38.9985 48.5129C41.0578 48.1877 45.1146 48.0639 46.8952 48.2806C48.0255 48.4045 48.3816 48.4045 48.4745 48.2497C48.5365 48.1568 48.5984 39.0988 48.5984 28.1364C48.5984 8.58047 48.5984 8.20886 48.3042 8.03854C47.9016 7.83726 47.8861 7.83726 47.5765 8.14693Z" fill="#FFCFAB"/>
<path d="M50.4564 31.1712C50.4564 42.1181 50.4099 51.0987 50.348 51.1296C50.2706 51.1761 49.5583 51.0987 48.7532 50.9748C47.8396 50.8354 46.09 50.7425 44.1081 50.7425C39.3391 50.727 36.552 51.3154 32.9598 53.0806L31.1792 53.9477L41.1662 53.9941C46.6629 54.0096 51.308 53.9941 51.4938 53.9477C51.6796 53.9012 51.8964 53.6689 51.9893 53.3902C52.1751 52.8638 52.237 12.312 52.0667 11.6308C51.9738 11.3366 51.8654 11.2901 51.2151 11.2901H50.4564V31.1712Z" fill="#FFCFAB"/>
</svg>
