<svg width="30" height="30" viewBox="0 0 30 30" fill="none" xmlns="http://www.w3.org/2000/svg">
<path d="M7.2625 2.5C6.0375 2.6125 5 3.75 5 5V25C5 26.3125 6.1875 27.5 7.5 27.5H22.5C23.8125 27.5 25 26.3125 25 25V5C25 4.33696 24.7366 3.70107 24.2678 3.23223C23.7989 2.76339 23.163 2.5 22.5 2.5H15V11.25L11.875 9.375L8.75 11.25V2.5H7.2625ZM15 16.25H16.25C16.5815 16.25 16.8995 16.3817 17.1339 16.6161C17.3683 16.8505 17.5 17.1685 17.5 17.5V22.5H16.25V20H15V22.5H13.75V17.5C13.75 17.1685 13.8817 16.8505 14.1161 16.6161C14.3505 16.3817 14.6685 16.25 15 16.25ZM15 17.5V18.75H16.25V17.5H15ZM18.75 18.75H22.5V20L20 23.75H22.5V25H18.75V23.75L21.25 20H18.75V18.75Z" fill="#DE886B"/>
</svg>
