<svg width="15" height="14" viewBox="0 0 15 14" fill="none" xmlns="http://www.w3.org/2000/svg">
<path d="M6.91669 4.66668H8.08335V5.25001H6.91669V4.66668ZM6.91669 2.33334H8.08335V2.91668H6.91669V2.33334ZM6.91669 5.83334H8.08335V6.41668H6.91669V5.83334Z" fill="#5B578E"/>
<path d="M12.75 7V5.25C10.9716 5.24944 9.24859 5.8682 7.87685 7H7.12319C5.75145 5.8682 4.02839 5.24944 2.25002 5.25V7C2.09531 7 1.94694 7.06146 1.83754 7.17085C1.72815 7.28025 1.66669 7.42862 1.66669 7.58333V8.75C1.66669 8.90471 1.72815 9.05308 1.83754 9.16248C1.94694 9.27188 2.09531 9.33333 2.25002 9.33333V11.6667C4.19959 11.6647 6.07676 12.4051 7.50002 13.7375C8.92487 12.4077 10.801 11.6676 12.75 11.6667V9.33333C12.9047 9.33333 13.0531 9.27188 13.1625 9.16248C13.2719 9.05308 13.3334 8.90471 13.3334 8.75V7.58333C13.3334 7.42862 13.2719 7.28025 13.1625 7.17085C13.0531 7.06146 12.9047 7 12.75 7Z" fill="#5B578E"/>
<path d="M5.75002 2.91667C6.07219 2.91667 6.33335 2.6555 6.33335 2.33333C6.33335 2.01117 6.07219 1.75 5.75002 1.75C5.42785 1.75 5.16669 2.01117 5.16669 2.33333C5.16669 2.6555 5.42785 2.91667 5.75002 2.91667Z" fill="#5B578E"/>
<path d="M9.25002 2.91667C9.57219 2.91667 9.83335 2.6555 9.83335 2.33333C9.83335 2.01117 9.57219 1.75 9.25002 1.75C8.92785 1.75 8.66669 2.01117 8.66669 2.33333C8.66669 2.6555 8.92785 2.91667 9.25002 2.91667Z" fill="#5B578E"/>
<path d="M9.83335 4.66667H5.16669C4.7027 4.6662 4.25785 4.48168 3.92976 4.15359C3.60167 3.8255 3.41715 3.38065 3.41669 2.91667V1.75C3.41715 1.28601 3.60167 0.841163 3.92976 0.513075C4.25785 0.184987 4.7027 0.000463292 5.16669 0L9.83335 0C10.2973 0.000463292 10.7422 0.184987 11.0703 0.513075C11.3984 0.841163 11.5829 1.28601 11.5834 1.75V2.91667C11.5829 3.38065 11.3984 3.8255 11.0703 4.15359C10.7422 4.48168 10.2973 4.6662 9.83335 4.66667ZM5.16669 1.16667C5.01198 1.16667 4.8636 1.22812 4.75421 1.33752C4.64481 1.44692 4.58335 1.59529 4.58335 1.75V2.91667C4.58335 3.07138 4.64481 3.21975 4.75421 3.32915C4.8636 3.43854 5.01198 3.5 5.16669 3.5H9.83335C9.98806 3.5 10.1364 3.43854 10.2458 3.32915C10.3552 3.21975 10.4167 3.07138 10.4167 2.91667V1.75C10.4167 1.59529 10.3552 1.44692 10.2458 1.33752C10.1364 1.22812 9.98806 1.16667 9.83335 1.16667H5.16669Z" fill="#5B578E"/>
</svg>
