<svg width="17" height="16" viewBox="0 0 17 16" fill="none" xmlns="http://www.w3.org/2000/svg">
<path d="M10.25 5H3.5C3.16848 5 2.85054 5.1317 2.61612 5.36612C2.3817 5.60054 2.25 5.91848 2.25 6.25V13C2.25 13.3315 2.3817 13.6495 2.61612 13.8839C2.85054 14.1183 3.16848 14.25 3.5 14.25H10.25C10.5815 14.25 10.8995 14.1183 11.1339 13.8839C11.3683 13.6495 11.5 13.3315 11.5 13V6.25C11.5 5.91848 11.3683 5.60054 11.1339 5.36612C10.8995 5.1317 10.5815 5 10.25 5ZM10 12.75H3.75V6.5H10V12.75ZM8.75 2.5C8.75 2.30109 8.82902 2.11032 8.96967 1.96967C9.11032 1.82902 9.30109 1.75 9.5 1.75H10.5C10.6989 1.75 10.8897 1.82902 11.0303 1.96967C11.171 2.11032 11.25 2.30109 11.25 2.5C11.25 2.69891 11.171 2.88968 11.0303 3.03033C10.8897 3.17098 10.6989 3.25 10.5 3.25H9.5C9.30109 3.25 9.11032 3.17098 8.96967 3.03033C8.82902 2.88968 8.75 2.69891 8.75 2.5ZM14.75 3V3.5C14.75 3.69891 14.671 3.88968 14.5303 4.03033C14.3897 4.17098 14.1989 4.25 14 4.25C13.8011 4.25 13.6103 4.17098 13.4697 4.03033C13.329 3.88968 13.25 3.69891 13.25 3.5V3.25H13C12.8011 3.25 12.6103 3.17098 12.4697 3.03033C12.329 2.88968 12.25 2.69891 12.25 2.5C12.25 2.30109 12.329 2.11032 12.4697 1.96967C12.6103 1.82902 12.8011 1.75 13 1.75H13.5C13.8315 1.75 14.1495 1.8817 14.3839 2.11612C14.6183 2.35054 14.75 2.66848 14.75 3ZM14.75 6V7C14.75 7.19891 14.671 7.38968 14.5303 7.53033C14.3897 7.67098 14.1989 7.75 14 7.75C13.8011 7.75 13.6103 7.67098 13.4697 7.53033C13.329 7.38968 13.25 7.19891 13.25 7V6C13.25 5.80109 13.329 5.61032 13.4697 5.46967C13.6103 5.32902 13.8011 5.25 14 5.25C14.1989 5.25 14.3897 5.32902 14.5303 5.46967C14.671 5.61032 14.75 5.80109 14.75 6ZM14.75 9.5V10C14.75 10.3315 14.6183 10.6495 14.3839 10.8839C14.1495 11.1183 13.8315 11.25 13.5 11.25H13C12.8011 11.25 12.6103 11.171 12.4697 11.0303C12.329 10.8897 12.25 10.6989 12.25 10.5C12.25 10.3011 12.329 10.1103 12.4697 9.96967C12.6103 9.82902 12.8011 9.75 13 9.75H13.25V9.5C13.25 9.30109 13.329 9.11032 13.4697 8.96967C13.6103 8.82902 13.8011 8.75 14 8.75C14.1989 8.75 14.3897 8.82902 14.5303 8.96967C14.671 9.11032 14.75 9.30109 14.75 9.5ZM5.25 3.5V3C5.25 2.66848 5.3817 2.35054 5.61612 2.11612C5.85054 1.8817 6.16848 1.75 6.5 1.75H7C7.19891 1.75 7.38968 1.82902 7.53033 1.96967C7.67098 2.11032 7.75 2.30109 7.75 2.5C7.75 2.69891 7.67098 2.88968 7.53033 3.03033C7.38968 3.17098 7.19891 3.25 7 3.25H6.75V3.5C6.75 3.69891 6.67098 3.88968 6.53033 4.03033C6.38968 4.17098 6.19891 4.25 6 4.25C5.80109 4.25 5.61032 4.17098 5.46967 4.03033C5.32902 3.88968 5.25 3.69891 5.25 3.5Z" fill="#5B578E"/>
</svg>
