<svg width="24" height="24" viewBox="0 0 24 24" fill="none" xmlns="http://www.w3.org/2000/svg">
<path d="M18.6 8.4C19.3616 8.39955 20.095 8.68885 20.6512 9.20919C21.2074 9.72954 21.5449 10.442 21.5952 11.202L21.6012 11.3988V12.3072C20.3351 11.2617 18.7249 10.7257 17.0849 10.8038C15.4448 10.8819 13.8928 11.5684 12.7318 12.7294C11.5708 13.8904 10.8842 15.4425 10.8062 17.0825C10.7281 18.7225 11.2641 20.3328 12.3096 21.5988H11.4012C10.6395 21.5989 9.90632 21.3093 9.35031 20.7887C8.79431 20.2682 8.45713 19.5556 8.40717 18.7956L8.40117 18.5988V11.3988C8.40105 10.6371 8.69065 9.90394 9.21122 9.34794C9.73178 8.79194 10.4443 8.45476 11.2044 8.4048L11.4 8.4H18.6ZM15.1956 4.4328L15.2532 4.6224L15.9432 7.1988H10.8012C9.88292 7.19874 8.99935 7.54959 8.33126 8.17954C7.66316 8.80949 7.26104 9.67092 7.20717 10.5876L7.20117 10.7988V17.2164C6.5881 17.2034 5.99373 17.0029 5.49811 16.6418C5.00249 16.2807 4.62943 15.7764 4.42917 15.1968L4.36677 14.9928L2.50317 8.0388C2.30574 7.30315 2.39553 6.51995 2.75431 5.84806C3.11309 5.17618 3.71401 4.66592 4.43517 4.4208L4.62477 4.3644L11.5788 2.5008C12.2818 2.31233 13.0294 2.3859 13.6822 2.70778C14.3351 3.02967 14.8486 3.57793 15.1272 4.2504L15.1956 4.4328ZM22.8012 17.4C22.8012 18.1091 22.6615 18.8113 22.3901 19.4665C22.1187 20.1216 21.721 20.7169 21.2195 21.2184C20.7181 21.7198 20.1228 22.1176 19.4677 22.3889C18.8125 22.6603 18.1103 22.8 17.4012 22.8C16.692 22.8 15.9898 22.6603 15.3347 22.3889C14.6795 22.1176 14.0842 21.7198 13.5828 21.2184C13.0814 20.7169 12.6836 20.1216 12.4122 19.4665C12.1408 18.8113 12.0012 18.1091 12.0012 17.4C12.0012 15.9678 12.5701 14.5943 13.5828 13.5816C14.5955 12.5689 15.969 12 17.4012 12C18.8333 12 20.2068 12.5689 21.2195 13.5816C22.2322 14.5943 22.8012 15.9678 22.8012 17.4ZM18.0012 15C18.0012 14.8409 17.938 14.6883 17.8254 14.5757C17.7129 14.4632 17.5603 14.4 17.4012 14.4C17.242 14.4 17.0894 14.4632 16.9769 14.5757C16.8644 14.6883 16.8012 14.8409 16.8012 15V16.8H15.0012C14.842 16.8 14.6894 16.8632 14.5769 16.9757C14.4644 17.0883 14.4012 17.2409 14.4012 17.4C14.4012 17.5591 14.4644 17.7117 14.5769 17.8243C14.6894 17.9368 14.842 18 15.0012 18H16.8012V19.8C16.8012 19.9591 16.8644 20.1117 16.9769 20.2243C17.0894 20.3368 17.242 20.4 17.4012 20.4C17.5603 20.4 17.7129 20.3368 17.8254 20.2243C17.938 20.1117 18.0012 19.9591 18.0012 19.8V18H19.8012C19.9603 18 20.1129 17.9368 20.2254 17.8243C20.338 17.7117 20.4012 17.5591 20.4012 17.4C20.4012 17.2409 20.338 17.0883 20.2254 16.9757C20.1129 16.8632 19.9603 16.8 19.8012 16.8H18.0012V15Z" fill="black"/>
</svg>
