<svg width="16" height="16" viewBox="0 0 16 16" fill="none" xmlns="http://www.w3.org/2000/svg">
<path d="M13.3332 11.3333H15.3332L12.6665 14L9.99984 11.3333H11.9998V2H13.3332V11.3333ZM5.33317 3.33333C2.75984 3.33333 0.666504 5.42 0.666504 8C0.666504 10.58 2.75317 12.6667 5.33317 12.6667C7.90651 12.6667 9.99984 10.58 9.99984 8C9.99984 5.42 7.91317 3.33333 5.33317 3.33333ZM5.33317 4.76667C7.11317 4.76667 8.56651 6.21333 8.56651 8C8.56651 9.78667 7.11984 11.2333 5.33317 11.2333C3.5465 11.2333 2.09984 9.78667 2.09984 8C2.09984 6.21333 3.5465 4.76667 5.33317 4.76667ZM4.6665 6V8.46L6.79317 9.68667L7.29317 8.82L5.6665 7.88V6" fill="black"/>
</svg>
