<svg width="24" height="24" viewBox="0 0 24 24" fill="none" xmlns="http://www.w3.org/2000/svg">
<path d="M12 5.1C12.5667 4.43333 13.2417 3.91667 14.025 3.55C14.8083 3.18333 15.6333 3 16.5 3C18.0667 3 19.375 3.525 20.425 4.575C21.475 5.625 22 6.93333 22 8.5C22 9.2 21.896 9.871 21.688 10.513C21.48 11.155 21.1217 11.8467 20.613 12.588C20.1043 13.3293 19.421 14.1417 18.563 15.025C17.705 15.9083 16.6257 16.9333 15.325 18.1L13.325 19.85C12.9417 20.1833 12.5 20.35 12 20.35C11.5 20.35 11.0583 20.1833 10.675 19.85L8.675 18.1C7.375 16.9333 6.29567 15.9083 5.437 15.025C4.57834 14.1417 3.895 13.3293 3.387 12.588C2.879 11.8467 2.52067 11.155 2.312 10.513C2.10334 9.871 1.99934 9.2 2 8.5C2 6.93333 2.525 5.625 3.575 4.575C4.625 3.525 5.93334 3 7.5 3C8.36667 3 9.19167 3.18333 9.975 3.55C10.7583 3.91667 11.4333 4.43333 12 5.1Z" fill="#FFCFAB"/>
</svg>
