<svg width="24" height="24" viewBox="0 0 24 24" fill="none" xmlns="http://www.w3.org/2000/svg">
<path d="M11 20.325C10.7667 20.325 10.5333 20.2833 10.3 20.2C10.0667 20.1167 9.85833 19.9833 9.675 19.8C8.94167 19.1333 8.075 18.375 7.075 17.525C6.075 16.675 5.125 15.7627 4.225 14.788C3.325 13.8133 2.56267 12.7923 1.938 11.725C1.31333 10.6577 1.00067 9.57433 1 8.475C1 6.90833 1.525 5.60433 2.575 4.563C3.625 3.52167 4.93333 3.00067 6.5 3C7.36667 3 8.19167 3.17933 8.975 3.538C9.75833 3.89667 10.4333 4.409 11 5.075C11.5667 4.40833 12.2417 3.896 13.025 3.538C13.8083 3.18 14.6333 3.00067 15.5 3C16.55 3 17.4793 3.246 18.288 3.738C19.0967 4.23 19.734 4.85067 20.2 5.6C20.3833 5.91667 20.3543 6.23767 20.113 6.563C19.8717 6.88833 19.5257 7.034 19.075 7H18.675C17.2583 7 15.9583 7.571 14.775 8.713C13.5917 9.855 13 11.284 13 13C13 13.7 13.1127 14.3627 13.338 14.988C13.5633 15.6133 13.9173 16.184 14.4 16.7C14.5833 16.9 14.6627 17.1333 14.638 17.4C14.6133 17.6667 14.5007 17.8917 14.3 18.075L12.325 19.825C12.1417 20.0083 11.9333 20.1377 11.7 20.213C11.4667 20.2883 11.2333 20.3257 11 20.325Z" fill="#FFCFAB"/>
<path d="M22.175 10.5634C22.3583 10.7634 22.45 11.0011 22.45 11.2764C22.45 11.5517 22.3583 11.7891 22.175 11.9884L18.625 15.5134C18.4417 15.7134 18.2083 15.8134 17.925 15.8134C17.6417 15.8134 17.4083 15.7134 17.225 15.5134L15.8 14.1134C15.6 13.9134 15.5 13.6761 15.5 13.4014C15.5 13.1267 15.6 12.8891 15.8 12.6884C16 12.5051 16.2377 12.4134 16.513 12.4134C16.7883 12.4134 17.0257 12.5051 17.225 12.6884L17.925 13.3884L20.75 10.5634C20.95 10.3801 21.1873 10.2884 21.462 10.2884C21.7367 10.2884 21.9743 10.3801 22.175 10.5634Z" fill="#90F0D8"/>
</svg>
