<svg width="13" height="14" viewBox="0 0 13 14" fill="none" xmlns="http://www.w3.org/2000/svg">
<path d="M9.04401 7.00001L12.5729 10.5289C12.9634 10.9194 12.9634 11.5526 12.5729 11.9431L11.4431 13.0729C11.0526 13.4634 10.4194 13.4634 10.0289 13.0729L6.50001 9.54401L2.95911 13.0849C2.56859 13.4754 1.93543 13.4754 1.5449 13.0849L0.415114 11.9551C0.0245895 11.5646 0.0245903 10.9314 0.415115 10.5409L3.95601 7.00001L0.415114 3.45911C0.0245898 3.06859 0.0245904 2.43543 0.415115 2.0449L1.5449 0.915115C1.93542 0.524591 2.56859 0.52459 2.95911 0.915115L6.50001 4.45601L10.0409 0.925116C10.4316 0.535534 11.064 0.535981 11.4541 0.926115L12.5839 2.0559C12.9748 2.44682 12.9744 3.08075 12.5829 3.47111L9.04401 7.00001Z" fill="#67A2FF"/>
</svg>
