<svg width="24" height="24" viewBox="0 0 24 24" fill="none" xmlns="http://www.w3.org/2000/svg">
<path d="M20.889 7.556C19.33 4.267 15.93 2 12 2C6.477 2 2 6.477 2 12C2 17.523 6.477 22 12 22C17.523 22 22 17.523 22 12M22 4V8H18" stroke="black" stroke-width="2" stroke-linecap="round" stroke-linejoin="round"/>
<path d="M11.8651 8.15341C12.3139 8.15341 12.7457 8.22869 13.1605 8.37926C13.5781 8.52983 13.9503 8.76989 14.277 9.09943C14.6065 9.42898 14.8665 9.86648 15.0568 10.4119C15.25 10.9545 15.348 11.6207 15.3509 12.4105C15.3509 13.152 15.267 13.8139 15.0994 14.3963C14.9347 14.9759 14.6974 15.4688 14.3878 15.875C14.0781 16.2812 13.7045 16.5909 13.267 16.804C12.8295 17.0142 12.3409 17.1193 11.8011 17.1193C11.2188 17.1193 10.7045 17.0071 10.2585 16.7827C9.8125 16.5554 9.45313 16.2472 9.1804 15.858C8.91051 15.4659 8.74716 15.0256 8.69034 14.5369H10.5099C10.581 14.8551 10.7301 15.1023 10.9574 15.2784C11.1847 15.4517 11.4659 15.5384 11.8011 15.5384C12.3693 15.5384 12.8011 15.2912 13.0966 14.7969C13.392 14.2997 13.5412 13.6193 13.544 12.7557H13.4844C13.3537 13.0114 13.1776 13.2315 12.956 13.4162C12.7344 13.598 12.4801 13.7386 12.1932 13.8381C11.9091 13.9375 11.6065 13.9872 11.2855 13.9872C10.7713 13.9872 10.3125 13.8665 9.90909 13.625C9.50568 13.3835 9.1875 13.0511 8.95455 12.6278C8.72159 12.2045 8.60511 11.7216 8.60511 11.179C8.60227 10.5938 8.73722 10.0724 9.00994 9.61506C9.28267 9.15767 9.66335 8.79972 10.152 8.54119C10.6435 8.27983 11.2145 8.15057 11.8651 8.15341ZM11.8778 9.60227C11.5909 9.60227 11.3352 9.67045 11.1108 9.80682C10.8892 9.94318 10.7131 10.1264 10.5824 10.3565C10.4545 10.5866 10.392 10.8437 10.3949 11.1278C10.3949 11.4148 10.4574 11.6733 10.5824 11.9034C10.7102 12.1307 10.8835 12.3125 11.1023 12.4489C11.3239 12.5824 11.5767 12.6491 11.8608 12.6491C12.0739 12.6491 12.2713 12.6094 12.4531 12.5298C12.6349 12.4503 12.7926 12.3409 12.9261 12.2017C13.0625 12.0597 13.169 11.8963 13.2457 11.7116C13.3224 11.527 13.3608 11.331 13.3608 11.1236C13.358 10.848 13.2926 10.5952 13.1648 10.3651C13.0369 10.1349 12.8608 9.95028 12.6364 9.81108C12.4119 9.67187 12.1591 9.60227 11.8778 9.60227Z" fill="black"/>
</svg>
