<svg width="24" height="24" viewBox="0 0 24 24" fill="none" xmlns="http://www.w3.org/2000/svg">
<g clip-path="url(#clip0_348_398)">
<path fill-rule="evenodd" clip-rule="evenodd" d="M11.183 5.32755C11.191 5.31421 11.1993 5.30121 11.208 5.28855C12.2405 3.74455 14.0115 2.80855 15.866 2.80505C16.0026 2.80438 16.1393 2.80238 16.276 2.79905C16.292 2.48705 16.311 2.21855 16.33 1.98705C16.382 1.36005 16.731 0.801048 17.307 0.532048C17.881 0.263548 18.531 0.352048 19.045 0.704548C19.563 1.05955 20.2695 1.57955 21.1875 2.32805C22.1365 3.10155 22.762 3.72805 23.174 4.20955C23.942 5.10755 23.942 6.35805 23.174 7.25605C22.762 7.73755 22.1365 8.36405 21.1875 9.13755C20.2695 9.88605 19.563 10.406 19.0455 10.7605C18.5315 11.113 17.881 11.202 17.3075 10.9335C16.731 10.6645 16.382 10.105 16.33 9.47855C16.3079 9.2085 16.2899 8.93814 16.276 8.66755C16.1393 8.66424 16.0026 8.66224 15.866 8.66155C15.8325 8.66122 15.7995 8.66868 15.7695 8.68335C15.7394 8.69802 15.7132 8.71949 15.693 8.74605L9.69047 18.4425L9.67147 18.472C8.69447 19.9325 6.98347 21.1965 5.01697 21.1965H3.09497C1.99497 21.1965 0.542966 20.605 0.309966 19.07C0.22936 18.5384 0.22936 17.9977 0.309966 17.466C0.542966 15.931 1.99497 15.3395 3.09497 15.3395H5.01747C5.04969 15.3397 5.08151 15.3324 5.11047 15.3183C5.13943 15.3041 5.16475 15.2835 5.18447 15.258L11.183 5.32755ZM19.924 3.87755C19.3918 3.4411 18.8466 3.0209 18.289 2.61755C18.269 2.94155 18.2505 3.33055 18.2365 3.79455C18.2288 4.04593 18.1268 4.2852 17.9506 4.46469C17.7745 4.64419 17.5372 4.75071 17.286 4.76305C16.8116 4.78602 16.3369 4.79985 15.862 4.80455C15.2742 4.80425 14.6953 4.94786 14.1759 5.22285C13.6564 5.49783 13.2122 5.89582 12.882 6.38205L6.87947 16.3195L6.85447 16.3585C6.65247 16.6604 6.37917 16.9079 6.05876 17.079C5.73835 17.2501 5.3807 17.3396 5.01747 17.3395H3.09497C2.83097 17.3395 2.61197 17.4095 2.47397 17.4995C2.35247 17.5795 2.30297 17.6635 2.28797 17.7655C2.23748 18.0985 2.23748 18.4371 2.28797 18.77C2.30297 18.8715 2.35247 18.956 2.47397 19.036C2.61197 19.126 2.83097 19.196 3.09497 19.196H5.01747C6.11897 19.196 7.27247 18.4535 7.99997 17.3735L14.0065 7.67155L14.0255 7.64205C14.2276 7.34018 14.501 7.09279 14.8215 6.92177C15.142 6.75075 15.4997 6.66137 15.863 6.66155C15.9963 6.66188 16.1296 6.66355 16.263 6.66655C16.512 6.67155 16.8655 6.68205 17.2865 6.70255C17.5377 6.71488 17.775 6.82141 17.9511 7.0009C18.1273 7.18039 18.2293 7.41967 18.237 7.67105C18.251 8.13505 18.2695 8.52355 18.29 8.84755C18.8474 8.44379 19.3927 8.02343 19.925 7.58705C20.7985 6.87455 21.334 6.33005 21.655 5.95555C21.7325 5.86455 21.7505 5.78655 21.7505 5.73255C21.7505 5.67805 21.7325 5.60005 21.6545 5.50955C21.3345 5.13455 20.7985 4.59055 19.9245 3.87805M0.309966 4.93005C0.542466 3.39505 1.99497 2.80355 3.09497 2.80355H5.01697C6.47597 2.80355 7.85997 3.37105 8.89097 4.35755C9.08258 4.54094 9.1935 4.79295 9.19932 5.05813C9.20513 5.3233 9.10536 5.57993 8.92197 5.77155C8.73857 5.96317 8.48656 6.07408 8.22139 6.0799C7.95621 6.08571 7.69958 5.98594 7.50797 5.80255C6.83744 5.16091 5.94503 4.80302 5.01697 4.80355H3.09497C2.83097 4.80355 2.61197 4.87355 2.47397 4.96355C2.35247 5.04355 2.30297 5.12855 2.28797 5.23005C2.23748 5.56298 2.23748 5.90162 2.28797 6.23455C2.30297 6.33605 2.35247 6.42055 2.47397 6.50055C2.61197 6.59055 2.83097 6.66055 3.09497 6.66055H5.01747C5.3885 6.66059 5.75356 6.75405 6.07897 6.93231C6.40438 7.11057 6.67968 7.36789 6.87947 7.68055L7.11047 8.06205C7.24758 8.28907 7.2889 8.56127 7.22532 8.81876C7.16175 9.07624 6.99849 9.29793 6.77147 9.43505C6.54444 9.57217 6.27224 9.61348 6.01476 9.5499C5.75727 9.48633 5.53558 9.32307 5.39847 9.09605L5.18447 8.74205C5.16475 8.71656 5.13943 8.69595 5.11047 8.68182C5.08151 8.66769 5.04969 8.66041 5.01747 8.66055H3.09497C1.99497 8.66055 0.542966 8.06905 0.309966 6.53405C0.22936 6.00242 0.22936 5.46168 0.309966 4.93005ZM17.3075 13.0665C17.8815 12.7985 18.5315 12.887 19.0455 13.2395C19.563 13.5945 20.2695 14.1145 21.188 14.863C22.1365 15.636 22.762 16.263 23.174 16.7445C23.942 17.6425 23.942 18.893 23.174 19.791C22.762 20.2725 22.1365 20.899 21.188 21.6725C20.2695 22.421 19.563 22.941 19.0455 23.296C18.531 23.6485 17.881 23.737 17.3075 23.469C16.731 23.1995 16.3825 22.6405 16.33 22.0135C16.3082 21.7485 16.2904 21.4831 16.2765 21.2175L16.2085 21.2145C16.0814 21.2095 15.9544 21.2031 15.8275 21.1955C15.0722 21.1912 14.3256 21.0341 13.6326 20.7337C12.9396 20.4333 12.3145 19.9958 11.795 19.4475C11.6177 19.2541 11.5236 18.9987 11.5328 18.7365C11.5421 18.4743 11.6541 18.2262 11.8446 18.0458C12.0351 17.8654 12.2889 17.7671 12.5513 17.7721C12.8136 17.7771 13.0635 17.885 13.247 18.0725C13.5836 18.4276 13.9892 18.7103 14.4388 18.9034C14.8884 19.0965 15.3726 19.1959 15.862 19.1955C15.885 19.1955 15.9081 19.1964 15.9315 19.198H15.935L15.9515 19.199C16.0644 19.2066 16.1774 19.2125 16.2905 19.2165C16.5235 19.226 16.8535 19.2355 17.237 19.2355C17.4971 19.2354 17.747 19.3367 17.9337 19.5178C18.1204 19.6989 18.2292 19.9456 18.237 20.2055C18.2505 20.6695 18.269 21.0585 18.2895 21.383C18.8471 20.9795 19.3924 20.5592 19.9245 20.1225C20.798 19.41 21.3335 18.8655 21.6545 18.4905C21.732 18.4 21.75 18.3215 21.75 18.2675C21.75 18.2135 21.732 18.1355 21.654 18.0445C21.334 17.6695 20.7985 17.1255 19.924 16.413C19.3918 15.9766 18.8466 15.5564 18.289 15.153C18.269 15.4765 18.2505 15.865 18.2365 16.329C18.2288 16.5804 18.1268 16.8197 17.9506 16.9992C17.7745 17.1787 17.5372 17.2852 17.286 17.2975C16.8216 17.32 16.3568 17.3336 15.892 17.3385H15.862C15.4987 17.3387 15.141 17.2493 14.8205 17.0783C14.5 16.9073 14.2266 16.6599 14.0245 16.358C13.9515 16.2489 13.9007 16.1264 13.875 15.9976C13.8493 15.8688 13.8492 15.7362 13.8748 15.6074C13.9003 15.4786 13.951 15.3561 14.0239 15.2468C14.0968 15.1376 14.1906 15.0438 14.2997 14.9708C14.4089 14.8978 14.5314 14.847 14.6601 14.8213C14.7889 14.7956 14.9215 14.7956 15.0503 14.8211C15.1792 14.8467 15.3017 14.8974 15.4109 14.9703C15.5201 15.0432 15.614 15.1369 15.687 15.246C15.7063 15.2747 15.7324 15.2981 15.7629 15.3142C15.7934 15.3303 15.8274 15.3387 15.862 15.3385H15.9515C16.0135 15.3379 16.1033 15.3362 16.221 15.3335L16.276 15.3325C16.2925 15.0215 16.311 14.753 16.33 14.5225C16.382 13.8955 16.7315 13.336 17.3075 13.0665Z" fill="black"/>
</g>
<defs>
<clipPath id="clip0_348_398">
<rect width="24" height="24" fill="white"/>
</clipPath>
</defs>
</svg>
