<svg width="24" height="24" viewBox="0 0 24 24" fill="none" xmlns="http://www.w3.org/2000/svg">
<g clip-path="url(#clip0_348_400)">
<path fill-rule="evenodd" clip-rule="evenodd" d="M17.822 1.65089C17.872 1.03589 18.463 0.763394 18.967 1.11939C19.459 1.46689 20.145 1.98689 21.0475 2.74589C21.994 3.54189 22.5835 4.16289 22.947 4.60839C23.3645 5.12089 23.3645 5.79439 22.947 6.30689C22.5835 6.75189 21.9945 7.37289 21.0475 8.16889C20.145 8.92789 19.459 9.44739 18.967 9.79539C18.463 10.1514 17.872 9.87889 17.822 9.26389C17.7782 8.70423 17.7486 8.14355 17.733 7.58239C16.665 7.51889 15.903 7.51889 15.903 7.51889C15.4835 7.51889 15.092 7.72689 14.8595 8.07289L8.621 18.1039C7.7375 19.4189 6.2495 20.4579 4.6565 20.4579H2.051C1.551 20.4579 1.079 20.2054 0.933 19.7274C0.834 19.4019 0.75 18.9764 0.75 18.4674C0.75 17.9584 0.834 17.5324 0.933 17.2074C1.079 16.7294 1.551 16.4769 2.051 16.4769H4.6565C5.076 16.4769 5.4675 16.2689 5.7 15.9229L11.9385 5.64289C12.3762 4.99396 12.9667 4.46258 13.658 4.09551C14.3493 3.72844 15.1203 3.53695 15.903 3.53789C15.903 3.53789 16.663 3.53789 17.7285 3.47489C17.7436 2.86618 17.7747 2.25796 17.822 1.65089ZM8.621 5.64139L9.403 6.92989L7.205 10.5514L5.7 8.07139C5.58491 7.90049 5.42951 7.76054 5.24752 7.66392C5.06553 7.5673 4.86255 7.51698 4.6565 7.51739H2.051C1.551 7.51739 1.079 7.26489 0.933 6.78689C0.834 6.46189 0.75 6.03589 0.75 5.52689C0.75 5.01789 0.834 4.59189 0.933 4.26689C1.079 3.78889 1.551 3.53639 2.051 3.53639H4.6565C5.43931 3.53537 6.21038 3.72682 6.90179 4.09389C7.59321 4.46096 8.18328 4.99239 8.621 5.64139ZM13.3215 13.3864L11.0965 16.9644L11.9385 18.3509C12.3762 18.9999 12.9668 19.5313 13.6582 19.8984C14.3496 20.2655 15.1207 20.4569 15.9035 20.4559C15.9035 20.4559 16.6635 20.4559 17.729 20.5194C17.7515 21.3094 17.786 21.9034 17.8225 22.3454C17.8725 22.9604 18.4635 23.2329 18.9675 22.8769C19.4595 22.5289 20.1455 22.0089 21.048 21.2504C21.9945 20.4539 22.584 19.8334 22.9475 19.3879C23.365 18.8754 23.365 18.2019 22.9475 17.6894C22.584 17.2439 21.995 16.6229 21.048 15.8269C20.1455 15.0684 19.4595 14.5484 18.9675 14.2004C18.4635 13.8444 17.8725 14.1174 17.8225 14.7324C17.7788 15.2914 17.7491 15.8514 17.7335 16.4119C16.665 16.4749 15.9035 16.4749 15.9035 16.4749C15.6975 16.4753 15.4945 16.425 15.3125 16.3284C15.1305 16.2317 14.9751 16.0918 14.86 15.9209L13.3215 13.3864Z" fill="black"/>
</g>
<defs>
<clipPath id="clip0_348_400">
<rect width="24" height="24" fill="white"/>
</clipPath>
</defs>
</svg>
