<svg width="22" height="22" viewBox="0 0 22 22" fill="none" xmlns="http://www.w3.org/2000/svg">
<path d="M2.38888 19.1111H4.77777V2.38888H2.38888V19.1111ZM0 19.1111V2.38888C0 1.73194 0.234111 1.16976 0.702332 0.702332C1.17055 0.234907 1.73274 0.000796295 2.38888 0H4.77777C5.43471 0 5.99729 0.234111 6.46552 0.702332C6.93374 1.17055 7.16745 1.73274 7.16665 2.38888V19.1111C7.16665 19.768 6.93294 20.3306 6.46552 20.7988C5.99809 21.267 5.43551 21.5008 4.77777 21.5H2.38888C1.73194 21.5 1.16976 21.2662 0.702332 20.7988C0.234907 20.3314 0.000796295 19.7688 0 19.1111ZM16.9312 11.9444H10.75C10.4116 11.9444 10.1281 11.8298 9.89954 11.6004C9.671 11.3711 9.55633 11.0876 9.55554 10.75C9.55474 10.4124 9.66941 10.1289 9.89954 9.89954C10.1297 9.6702 10.4131 9.55554 10.75 9.55554H16.9312L15.8562 8.48054C15.6372 8.26156 15.5277 7.98803 15.5277 7.65996C15.5277 7.33188 15.6472 7.048 15.8861 6.80832C16.1051 6.58934 16.3838 6.47985 16.7222 6.47985C17.0606 6.47985 17.3393 6.58934 17.5583 6.80832L20.6639 9.91387C20.9027 10.1528 21.0222 10.4315 21.0222 10.75C21.0222 11.0685 20.9027 11.3472 20.6639 11.5861L17.5583 14.6916C17.3393 14.9106 17.0658 15.0253 16.7377 15.0356C16.4096 15.046 16.1258 14.9313 15.8861 14.6916C15.6671 14.4727 15.5576 14.194 15.5576 13.8555C15.5576 13.5171 15.6671 13.2384 15.8861 13.0194L16.9312 11.9444ZM10.75 2.38888C10.4116 2.38888 10.1281 2.27422 9.89954 2.04488C9.671 1.81555 9.55633 1.53207 9.55554 1.19444C9.55474 0.856813 9.66941 0.573332 9.89954 0.343999C10.1297 0.114667 10.4131 0 10.75 0C11.0868 0 11.3707 0.114667 11.6016 0.343999C11.8325 0.573332 11.9468 0.856813 11.9444 1.19444C11.942 1.53207 11.8274 1.81595 11.6004 2.04608C11.3735 2.27621 11.09 2.39048 10.75 2.38888ZM15.5277 2.38888C15.1893 2.38888 14.9058 2.27422 14.6773 2.04488C14.4488 1.81555 14.3341 1.53207 14.3333 1.19444C14.3325 0.856813 14.4472 0.573332 14.6773 0.343999C14.9074 0.114667 15.1909 0 15.5277 0C15.8646 0 16.1485 0.114667 16.3794 0.343999C16.6103 0.573332 16.7246 0.856813 16.7222 1.19444C16.7198 1.53207 16.6051 1.81595 16.3782 2.04608C16.1512 2.27621 15.8678 2.39048 15.5277 2.38888ZM20.3055 2.38888C19.9671 2.38888 19.6836 2.27422 19.4551 2.04488C19.2265 1.81555 19.1119 1.53207 19.1111 1.19444C19.1103 0.856813 19.2249 0.573332 19.4551 0.343999C19.6852 0.114667 19.9687 0 20.3055 0C20.6424 0 20.9262 0.114667 21.1572 0.343999C21.3881 0.573332 21.5023 0.856813 21.5 1.19444C21.4976 1.53207 21.3829 1.81595 21.156 2.04608C20.929 2.27621 20.6455 2.39048 20.3055 2.38888ZM10.75 21.5C10.4116 21.5 10.1281 21.3853 9.89954 21.156C9.671 20.9266 9.55633 20.6431 9.55554 20.3055C9.55474 19.9679 9.66941 19.6844 9.89954 19.4551C10.1297 19.2257 10.4131 19.1111 10.75 19.1111C11.0868 19.1111 11.3707 19.2257 11.6016 19.4551C11.8325 19.6844 11.9468 19.9679 11.9444 20.3055C11.942 20.6431 11.8274 20.927 11.6004 21.1572C11.3735 21.3873 11.09 21.5016 10.75 21.5ZM15.5277 21.5C15.1893 21.5 14.9058 21.3853 14.6773 21.156C14.4488 20.9266 14.3341 20.6431 14.3333 20.3055C14.3325 19.9679 14.4472 19.6844 14.6773 19.4551C14.9074 19.2257 15.1909 19.1111 15.5277 19.1111C15.8646 19.1111 16.1485 19.2257 16.3794 19.4551C16.6103 19.6844 16.7246 19.9679 16.7222 20.3055C16.7198 20.6431 16.6051 20.927 16.3782 21.1572C16.1512 21.3873 15.8678 21.5016 15.5277 21.5ZM20.3055 21.5C19.9671 21.5 19.6836 21.3853 19.4551 21.156C19.2265 20.9266 19.1119 20.6431 19.1111 20.3055C19.1103 19.9679 19.2249 19.6844 19.4551 19.4551C19.6852 19.2257 19.9687 19.1111 20.3055 19.1111C20.6424 19.1111 20.9262 19.2257 21.1572 19.4551C21.3881 19.6844 21.5023 19.9679 21.5 20.3055C21.4976 20.6431 21.3829 20.927 21.156 21.1572C20.929 21.3873 20.6455 21.5016 20.3055 21.5Z" fill="black"/>
</svg>
