<svg width="24" height="24" viewBox="0 0 24 24" fill="none" xmlns="http://www.w3.org/2000/svg">
<path d="M5 15C5 15.6 4.6 16 4 16C3.4 16 3 15.6 3 15C3 14.4 3.4 14 4 14C4.6 14 5 14.4 5 15Z" fill="black"/>
<path d="M21 15C21 15.6 20.6 16 20 16C19.4 16 19 15.6 19 15C19 14.4 19.4 14 20 14C20.6 14 21 14.4 21 15Z" fill="black"/>
<path fill-rule="evenodd" clip-rule="evenodd" d="M3.5 12C4.7 8.5 8 6 12 6C15.9 6 19.3 8.5 20.5 12C21.9 12.3 23 13.5 23 15C23 16.7 21.7 18 20 18C18.3 18 17 16.7 17 15C17 13.9 17.6 12.9 18.5 12.4C17.5 9.8 14.9 8 12 8C9 8 6.5 9.8 5.5 12.4C6.4 12.9 7 13.9 7 15C7 16.7 5.7 18 4 18C2.3 18 1 16.7 1 15C1 13.5 2.1 12.3 3.5 12ZM4 16C4.6 16 5 15.6 5 15C5 14.4 4.6 14 4 14C3.4 14 3 14.4 3 15C3 15.6 3.4 16 4 16ZM20 16C20.6 16 21 15.6 21 15C21 14.4 20.6 14 20 14C19.4 14 19 14.4 19 15C19 15.6 19.4 16 20 16ZM12 12C10.3 12 9 13.3 9 15C9 16.7 10.3 18 12 18C13.7 18 15 16.7 15 15C15 13.3 13.7 12 12 12ZM12 16C12.6 16 13 15.6 13 15C13 14.4 12.6 14 12 14C11.4 14 11 14.4 11 15C11 15.6 11.4 16 12 16Z" fill="black"/>
</svg>
