<svg width="24" height="24" viewBox="0 0 24 24" fill="none" xmlns="http://www.w3.org/2000/svg">
<path d="M13.4351 2.07506C12.9869 1.86106 12.4966 1.75 12.0001 1.75C11.5035 1.75 11.0132 1.86106 10.5651 2.07506C10.1711 2.26406 9.81006 2.57206 9.30506 3.00306L9.22606 3.06906C8.79006 3.46208 8.23224 3.69332 7.64606 3.72406L7.54406 3.73206C6.88206 3.78506 6.40906 3.82206 5.99706 3.96806C5.52881 4.13349 5.10349 4.40155 4.75224 4.75263C4.40099 5.1037 4.13272 5.52889 3.96706 5.99706C3.82206 6.40906 3.78506 6.88206 3.73206 7.54406L3.72406 7.64606C3.69332 8.23224 3.46208 8.79006 3.06906 9.22606L3.00306 9.30406C2.57206 9.81006 2.26306 10.1711 2.07506 10.5651C1.86106 11.0132 1.75 11.5035 1.75 12.0001C1.75 12.4966 1.86106 12.9869 2.07506 13.4351C2.26406 13.8291 2.57206 14.1901 3.00306 14.6951L3.06906 14.7741C3.47906 15.2541 3.67306 15.7131 3.72406 16.3541L3.73206 16.4561C3.78506 17.1181 3.82206 17.5911 3.96806 18.0031C4.13349 18.4713 4.40155 18.8966 4.75263 19.2479C5.1037 19.5991 5.52889 19.8674 5.99706 20.0331C6.40906 20.1781 6.88206 20.2151 7.54406 20.2681L7.64606 20.2761C8.27506 20.3261 8.73606 20.5141 9.22606 20.9311L9.30406 20.9971C9.81006 21.4281 10.1711 21.7371 10.5651 21.9251C11.0132 22.1391 11.5035 22.2501 12.0001 22.2501C12.4966 22.2501 12.9869 22.1391 13.4351 21.9251C13.8291 21.7361 14.1901 21.4281 14.6951 20.9971L14.7741 20.9311C15.2541 20.5211 15.7131 20.3271 16.3541 20.2761L16.4561 20.2681C17.1181 20.2151 17.5911 20.1781 18.0031 20.0321C18.4713 19.8666 18.8966 19.5986 19.2479 19.2475C19.5991 18.8964 19.8674 18.4712 20.0331 18.0031C20.1781 17.5911 20.2151 17.1181 20.2681 16.4561L20.2761 16.3541C20.3261 15.7251 20.5141 15.2641 20.9311 14.7741L20.9971 14.6951C21.4281 14.1901 21.7371 13.8291 21.9251 13.4351C22.1391 12.9869 22.2501 12.4966 22.2501 12.0001C22.2501 11.5035 22.1391 11.0132 21.9251 10.5651C21.7361 10.1711 21.4281 9.81006 20.9971 9.30506L20.9311 9.22606C20.538 8.79006 20.3068 8.23224 20.2761 7.64606L20.2681 7.54406C20.2151 6.88206 20.1781 6.40906 20.0321 5.99706C19.8666 5.52881 19.5986 5.10349 19.2475 4.75224C18.8964 4.40099 18.4712 4.13272 18.0031 3.96706C17.5911 3.82206 17.1181 3.78506 16.4561 3.73206L16.3541 3.72406C15.7679 3.69332 15.2101 3.46208 14.7741 3.06906L14.6951 3.00306C14.1901 2.57206 13.8291 2.26306 13.4351 2.07506ZM9.60306 9.33806C9.78606 9.45006 9.96906 9.56706 10.1351 9.68306C10.3241 9.81606 10.5231 9.97006 10.7161 10.1281L10.7561 10.1611C11.0571 10.4061 11.3551 10.6491 11.5671 10.8961C11.8211 11.1911 12.0001 11.5441 12.0001 12.0001C12.0001 12.4561 11.8201 12.8091 11.5671 13.1041C11.3551 13.3511 11.0571 13.5941 10.7571 13.8401L10.7171 13.8721C10.5231 14.0301 10.3241 14.1841 10.1351 14.3171C9.96142 14.4377 9.78399 14.5527 9.60306 14.6621L9.55506 14.6921C9.26306 14.8691 8.95506 15.0571 8.67506 15.1571C8.48839 15.2285 8.28858 15.2592 8.08906 15.2471C7.85974 15.2293 7.64037 15.146 7.45706 15.0071C7.08906 14.7291 6.95306 14.3351 6.88806 13.9971C6.82706 13.6831 6.80406 13.2861 6.77906 12.8531L6.77606 12.8071C6.75963 12.5384 6.75096 12.2693 6.75006 12.0001C6.75006 11.7461 6.76006 11.4691 6.77606 11.1931L6.77906 11.1471C6.80406 10.7141 6.82706 10.3171 6.88806 10.0021C6.95306 9.66506 7.08806 9.27106 7.45806 8.99406C7.63806 8.85806 7.85006 8.77106 8.08806 8.75406C8.28824 8.74159 8.48877 8.77228 8.67606 8.84406C8.95406 8.94406 9.26306 9.13106 9.55506 9.30906L9.60306 9.33806ZM15.3051 9.30806L15.3531 9.33806C15.5361 9.45006 15.7191 9.56706 15.8851 9.68306C16.0741 9.81606 16.2731 9.97006 16.4661 10.1281L16.5061 10.1611C16.8071 10.4061 17.1051 10.6491 17.3171 10.8961C17.5711 11.1911 17.7501 11.5441 17.7501 12.0001C17.7501 12.4561 17.5701 12.8091 17.3171 13.1041C17.1051 13.3511 16.8071 13.5941 16.5071 13.8401L16.4671 13.8721C16.2731 14.0301 16.0741 14.1841 15.8851 14.3171C15.7114 14.4377 15.534 14.5527 15.3531 14.6621L15.3051 14.6921C15.0131 14.8691 14.7051 15.0571 14.4251 15.1571C14.2384 15.2285 14.0386 15.2592 13.8391 15.2471C13.6097 15.2293 13.3904 15.146 13.2071 15.0071C12.8391 14.7291 12.7031 14.3351 12.6381 13.9971C12.5771 13.6831 12.5541 13.2861 12.5291 12.8531L12.5271 12.8071C12.5103 12.5384 12.5013 12.2693 12.5001 12.0001C12.5001 11.7461 12.5101 11.4691 12.5271 11.1931L12.5291 11.1471C12.5541 10.7141 12.5771 10.3171 12.6381 10.0021C12.7031 9.66506 12.8381 9.27106 13.2081 8.99406C13.3881 8.85806 13.6001 8.77106 13.8381 8.75406C14.0382 8.74159 14.2388 8.77228 14.4261 8.84406C14.7041 8.94406 15.0131 9.13106 15.3051 9.30906" fill="black"/>
</svg>
