<svg width="25" height="23" viewBox="0 0 25 23" fill="none" xmlns="http://www.w3.org/2000/svg">
<path d="M18.0833 12.8333C17.2407 12.8333 16.4063 12.6674 15.6278 12.3449C14.8493 12.0224 14.1419 11.5498 13.5461 10.9539C12.9502 10.3581 12.4776 9.65072 12.1551 8.87222C11.8326 8.09371 11.6667 7.25931 11.6667 6.41667C11.6667 5.57402 11.8326 4.73962 12.1551 3.96111C12.4776 3.18261 12.9502 2.47524 13.5461 1.8794C14.1419 1.28356 14.8493 0.810907 15.6278 0.48844C16.4063 0.165972 17.2407 -1.25564e-08 18.0833 0C19.7851 2.53589e-08 21.4172 0.67604 22.6206 1.8794C23.824 3.08276 24.5 4.71486 24.5 6.41667C24.5 8.11847 23.824 9.75058 22.6206 10.9539C21.4172 12.1573 19.7851 12.8333 18.0833 12.8333ZM20.2463 3.087C20.1368 2.97747 19.9882 2.91593 19.8333 2.91593C19.6784 2.91593 19.5299 2.97747 19.4203 3.087C19.3108 3.19653 19.2493 3.34509 19.2493 3.5C19.2493 3.6549 19.3108 3.80347 19.4203 3.913L20.1752 4.66667H17.7917C16.7861 4.66667 15.8216 5.06614 15.1106 5.77722C14.3995 6.48829 14 7.45272 14 8.45833V8.75C14 8.90471 14.0615 9.05308 14.1709 9.16248C14.2802 9.27187 14.4286 9.33333 14.5833 9.33333C14.738 9.33333 14.8864 9.27187 14.9958 9.16248C15.1052 9.05308 15.1667 8.90471 15.1667 8.75V8.45833C15.1667 7.76214 15.4432 7.09446 15.9355 6.60218C16.4278 6.10989 17.0955 5.83333 17.7917 5.83333H20.1752L19.4203 6.587C19.3108 6.69653 19.2493 6.84509 19.2493 7C19.2493 7.1549 19.3108 7.30346 19.4203 7.413C19.5299 7.52253 19.6784 7.58407 19.8333 7.58407C19.9882 7.58407 20.1368 7.52253 20.2463 7.413L21.9963 5.663C22.0507 5.60881 22.0938 5.54444 22.1232 5.47357C22.1526 5.4027 22.1677 5.32673 22.1677 5.25C22.1677 5.17327 22.1526 5.0973 22.1232 5.02643C22.0938 4.95556 22.0507 4.89119 21.9963 4.837L20.2463 3.087ZM17.5 14V13.9778C16.9052 13.9327 16.3178 13.8176 15.75 13.6348V14C15.75 14.1547 15.6885 14.3031 15.5791 14.4125C15.4697 14.5219 15.3214 14.5833 15.1667 14.5833H2.33333C2.17862 14.5833 2.03025 14.5219 1.92085 14.4125C1.81146 14.3031 1.75 14.1547 1.75 14V5.83333C1.75 5.67862 1.81146 5.53025 1.92085 5.42085C2.03025 5.31146 2.17862 5.25 2.33333 5.25H10.5887C10.682 4.64903 10.8473 4.06148 11.081 3.5H2.33333C1.71449 3.5 1.121 3.74583 0.683417 4.18342C0.245833 4.621 0 5.21449 0 5.83333V14C0 14.6188 0.245833 15.2123 0.683417 15.6499C1.121 16.0875 1.71449 16.3333 2.33333 16.3333H15.1667C15.7855 16.3333 16.379 16.0875 16.8166 15.6499C17.2542 15.2123 17.5 14.6188 17.5 14ZM18.6667 13.9778C19.2749 13.9304 19.8582 13.8161 20.4167 13.6348V14.5833C20.4167 15.821 19.925 17.008 19.0498 17.8832C18.1747 18.7583 16.9877 19.25 15.75 19.25H5.25C4.73261 19.2501 4.22985 19.0783 3.82077 18.7615C3.4117 18.4447 3.11951 18.001 2.99017 17.5H15.75C16.5235 17.5 17.2654 17.1927 17.8124 16.6457C18.3594 16.0987 18.6667 15.3569 18.6667 14.5833V13.9778ZM23.3333 11.8895C22.8153 12.3865 22.2262 12.8112 21.5833 13.146V15.4583C21.5833 16.7734 21.0609 18.0345 20.1311 18.9644C19.2012 19.8943 17.94 20.4167 16.625 20.4167H5.90683C6.03618 20.9176 6.32836 21.3614 6.73744 21.6782C7.14651 21.995 7.64927 22.1668 8.16667 22.1667H16.625C18.4042 22.1667 20.1105 21.4599 21.3685 20.2018C22.6266 18.9438 23.3333 17.2375 23.3333 15.4583V11.8895Z" fill="black"/>
</svg>
