<svg width="24" height="24" viewBox="0 0 24 24" fill="none" xmlns="http://www.w3.org/2000/svg">
<path d="M8.84996 16.825L12 14.925L15.15 16.85L14.325 13.25L17.1 10.85L13.45 10.525L12 7.125L10.55 10.5L6.89996 10.825L9.67496 13.25L8.84996 16.825ZM12 17.275L7.84996 19.775C7.66663 19.8917 7.47496 19.9417 7.27496 19.925C7.07496 19.9083 6.89996 19.8417 6.74996 19.725C6.59996 19.6083 6.4833 19.4627 6.39996 19.288C6.31663 19.1133 6.29996 18.9173 6.34996 18.7L7.44996 13.975L3.77496 10.8C3.6083 10.65 3.5043 10.479 3.46296 10.287C3.42163 10.095 3.43396 9.90766 3.49996 9.725C3.56596 9.54233 3.66596 9.39233 3.79996 9.275C3.93396 9.15766 4.1173 9.08266 4.34996 9.05L9.19996 8.625L11.075 4.175C11.1583 3.975 11.2876 3.825 11.463 3.725C11.6383 3.625 11.8173 3.575 12 3.575C12.1826 3.575 12.3616 3.625 12.537 3.725C12.7123 3.825 12.8416 3.975 12.925 4.175L14.8 8.625L19.65 9.05C19.8833 9.08333 20.0666 9.15833 20.2 9.275C20.3333 9.39166 20.4333 9.54166 20.5 9.725C20.5666 9.90833 20.5793 10.096 20.538 10.288C20.4966 10.48 20.3923 10.6507 20.225 10.8L16.55 13.975L17.65 18.7C17.7 18.9167 17.6833 19.1127 17.6 19.288C17.5166 19.4633 17.4 19.609 17.25 19.725C17.1 19.841 16.925 19.9077 16.725 19.925C16.525 19.9423 16.3333 19.8923 16.15 19.775L12 17.275Z" fill="#B25AB0"/>
<path d="M8.84996 16.825L12 14.925L15.15 16.85L14.325 13.25L17.1 10.85L13.45 10.525L12 7.125L10.55 10.5L6.89996 10.825L9.67496 13.25L8.84996 16.825Z" fill="#FFC481"/>
</svg>
