<svg width="24" height="24" viewBox="0 0 24 24" fill="none" xmlns="http://www.w3.org/2000/svg">
<path d="M16 22C15.7167 22 15.4794 21.904 15.288 21.712C15.0967 21.52 15.0007 21.2827 15 21V17C15 16.7167 15.096 16.4793 15.288 16.288C15.48 16.0967 15.7174 16.0007 16 16C16.2827 15.9993 16.5204 16.0953 16.713 16.288C16.9057 16.4807 17.0014 16.718 17 17V18.775C17.7 17.775 18.2084 16.6957 18.525 15.537C18.8417 14.3783 19 13.1993 19 12C19 10.8007 18.8417 9.62167 18.525 8.463C18.2084 7.30433 17.7 6.225 17 5.225V7C17 7.28333 16.904 7.521 16.712 7.713C16.52 7.905 16.2827 8.00067 16 8C15.7174 7.99933 15.48 7.90333 15.288 7.712C15.096 7.52067 15 7.28333 15 7V3C15 2.71667 15.096 2.47933 15.288 2.288C15.48 2.09667 15.7174 2.00067 16 2H20C20.2834 2 20.521 2.096 20.713 2.288C20.905 2.48 21.0007 2.71733 21 3C20.9994 3.28267 20.9034 3.52033 20.712 3.713C20.5207 3.90567 20.2834 4.00133 20 4H18.575C19.4084 5.16667 20.021 6.43333 20.413 7.8C20.805 9.16667 21.0007 10.5667 21 12C20.9994 13.4333 20.8037 14.8333 20.413 16.2C20.0224 17.5667 19.4097 18.8333 18.575 20H20C20.2834 20 20.521 20.096 20.713 20.288C20.905 20.48 21.0007 20.7173 21 21C20.9994 21.2827 20.9034 21.5203 20.712 21.713C20.5207 21.9057 20.2834 22.0013 20 22H16ZM5.90005 18.15H7.65005V16.95H5.90005V18.15ZM8.85005 18.15H10.6V16.95H8.85005V18.15ZM6.45005 15.45C6.30005 15.45 6.17105 15.396 6.06305 15.288C5.95505 15.18 5.90072 15.0507 5.90005 14.9V14.575H4.47505C4.32505 14.575 4.19605 14.521 4.08805 14.413C3.98005 14.305 3.92572 14.1757 3.92505 14.025C3.92438 13.8743 3.97872 13.7453 4.08805 13.638C4.19738 13.5307 4.32638 13.4763 4.47505 13.475H5.90005V13.25C5.90005 13.1 5.95438 12.975 6.06305 12.875C6.17172 12.775 6.30072 12.725 6.45005 12.725C6.59938 12.725 6.72438 12.775 6.82505 12.875C6.92572 12.975 6.97572 13.1 6.97505 13.25V13.475H9.50005V13.25C9.50005 13.1 9.55438 12.975 9.66305 12.875C9.77172 12.775 9.90072 12.725 10.05 12.725C10.1994 12.725 10.3244 12.775 10.425 12.875C10.5257 12.975 10.5757 13.1 10.575 13.25V13.475H12C12.15 13.475 12.2794 13.5293 12.388 13.638C12.4967 13.7467 12.5507 13.8757 12.55 14.025C12.5494 14.1743 12.4954 14.3037 12.388 14.413C12.2807 14.5223 12.1514 14.5763 12 14.575H10.575V14.925C10.575 15.075 10.525 15.2 10.425 15.3C10.325 15.4 10.2 15.45 10.05 15.45C9.90005 15.45 9.77072 15.396 9.66205 15.288C9.55338 15.18 9.49938 15.0507 9.50005 14.9V14.575H6.97505V14.925C6.97505 15.075 6.92505 15.2 6.82505 15.3C6.72505 15.4 6.60005 15.45 6.45005 15.45ZM8.30005 19.8C7.95005 20.3667 7.48338 20.8 6.90005 21.1C6.31672 21.4 5.70005 21.6417 5.05005 21.825C4.85005 21.875 4.65005 21.871 4.45005 21.813C4.25005 21.755 4.09172 21.634 3.97505 21.45C3.89172 21.3167 3.88338 21.1793 3.95005 21.038C4.01672 20.8967 4.13338 20.809 4.30005 20.775C4.88338 20.675 5.43338 20.5167 5.95005 20.3C6.46672 20.0833 6.88338 19.7333 7.20005 19.25H4.32505C4.17505 19.25 4.05005 19.196 3.95005 19.088C3.85005 18.98 3.80005 18.8507 3.80005 18.7C3.80005 18.5493 3.85438 18.4243 3.96305 18.325C4.07172 18.2257 4.20072 18.1757 4.35005 18.175H4.80005V16.375C4.80005 16.2417 4.85005 16.125 4.95005 16.025C5.05005 15.925 5.16672 15.875 5.30005 15.875H7.62505V15.5C7.62505 15.3333 7.68338 15.1917 7.80005 15.075C7.91672 14.9583 8.05838 14.9 8.22505 14.9C8.39172 14.9 8.53338 14.9583 8.65005 15.075C8.76671 15.1917 8.82505 15.3333 8.82505 15.5V15.875H11.275C11.4084 15.875 11.525 15.925 11.625 16.025C11.725 16.125 11.775 16.2417 11.775 16.375V18.175H12.125C12.275 18.175 12.4 18.225 12.5 18.325C12.6 18.425 12.65 18.55 12.65 18.7C12.65 18.85 12.6 18.9793 12.5 19.088C12.4 19.1967 12.275 19.2507 12.125 19.25H9.25005C9.65005 19.65 10.096 19.9793 10.588 20.238C11.08 20.4967 11.609 20.684 12.175 20.8C12.3417 20.8333 12.4667 20.9167 12.55 21.05C12.6334 21.1833 12.6334 21.3167 12.55 21.45C12.45 21.6333 12.3044 21.7667 12.113 21.85C11.9217 21.9333 11.7257 21.95 11.525 21.9C10.8917 21.75 10.296 21.4957 9.73805 21.137C9.18005 20.7783 8.70072 20.3327 8.30005 19.8ZM7.95005 10.525L7.15005 10.375C7.01672 10.3417 6.91272 10.2793 6.83805 10.188C6.76338 10.0967 6.70905 9.96733 6.67505 9.8C6.64172 9.61667 6.68338 9.454 6.80005 9.312C6.91672 9.17 7.06672 9.09933 7.25005 9.1H7.75005C7.90005 9.1 8.05005 9.07933 8.20005 9.038C8.35005 8.99667 8.45005 8.909 8.50005 8.775C8.65005 8.34167 8.74605 7.89567 8.78805 7.437C8.83005 6.97833 8.84238 6.516 8.82505 6.05C8.82505 5.81667 8.73772 5.61267 8.56305 5.438C8.38838 5.26333 8.18405 5.17567 7.95005 5.175H7.30005C7.11672 5.975 6.87938 6.75433 6.58805 7.513C6.29672 8.27167 5.95905 9.01733 5.57505 9.75C5.47505 9.93333 5.33738 10.0627 5.16205 10.138C4.98672 10.2133 4.80772 10.209 4.62505 10.125C4.45838 10.0417 4.35838 9.91267 4.32505 9.738C4.29172 9.56333 4.32505 9.39233 4.42505 9.225C4.79172 8.625 5.10838 8.00433 5.37505 7.363C5.64172 6.72167 5.85005 6.059 6.00005 5.375H4.67505C4.49172 5.375 4.33772 5.31267 4.21305 5.188C4.08838 5.06333 4.02572 4.909 4.02505 4.725C4.02438 4.541 4.08705 4.387 4.21305 4.263C4.33905 4.139 4.49305 4.07633 4.67505 4.075H6.30005C6.33338 3.84167 6.36272 3.61667 6.38805 3.4C6.41338 3.18333 6.44238 2.95833 6.47505 2.725C6.49172 2.54167 6.57505 2.4 6.72505 2.3C6.87505 2.2 7.03338 2.175 7.20005 2.225C7.40005 2.29167 7.55438 2.41267 7.66305 2.588C7.77172 2.76333 7.80905 2.95067 7.77505 3.15C7.74172 3.33333 7.70438 3.50833 7.66305 3.675C7.62172 3.84167 7.57572 4.00833 7.52505 4.175H8.30005C8.78338 4.175 9.19171 4.36267 9.52505 4.738C9.85838 5.11333 10.0334 5.55067 10.05 6.05C10.0667 6.65 10.0294 7.24167 9.93805 7.825C9.84672 8.40833 9.70072 8.98333 9.50005 9.55C9.45005 9.7 9.37072 9.84167 9.26205 9.975C9.15338 10.1083 9.03271 10.2167 8.90005 10.3C8.76738 10.3833 8.61738 10.45 8.45005 10.5C8.28272 10.55 8.11605 10.5583 7.95005 10.525ZM12.35 7.175C12.1667 7.25833 11.996 7.25 11.838 7.15C11.68 7.05 11.5674 6.90833 11.5 6.725C11.3667 6.325 11.2167 5.93333 11.05 5.55C10.8834 5.16667 10.6834 4.8 10.45 4.45C10.35 4.3 10.3167 4.13767 10.35 3.963C10.3834 3.78833 10.4834 3.659 10.65 3.575C10.8334 3.49167 11.0167 3.47933 11.2 3.538C11.3834 3.59667 11.525 3.71733 11.625 3.9C11.8417 4.26667 12.0377 4.646 12.213 5.038C12.3884 5.43 12.559 5.81733 12.725 6.2C12.8084 6.38333 12.8127 6.571 12.738 6.763C12.6634 6.955 12.534 7.09233 12.35 7.175Z" fill="black"/>
</svg>
